<svg width="20" height="20" viewBox="0 0 20 20" fill="none" xmlns="http://www.w3.org/2000/svg">
<g id="search">
<path id="icon" fill-rule="evenodd" clip-rule="evenodd" d="M11.6 3.00195C8.61766 3.00195 6.2 5.41962 6.2 8.40195C6.2 9.91315 6.81944 11.2779 7.82083 12.2591C8.79581 13.2145 10.1283 13.802 11.6 13.802C14.5823 13.802 17 11.3843 17 8.40195C17 5.41962 14.5823 3.00195 11.6 3.00195ZM4.2 8.40195C4.2 4.31505 7.51309 1.00195 11.6 1.00195C15.6869 1.00195 19 4.31505 19 8.40195C19 12.4889 15.6869 15.802 11.6 15.802C9.93822 15.802 8.40323 15.2533 7.16817 14.3285L2.70064 18.7155L1.29935 17.2884L5.74289 12.925C4.77621 11.6747 4.2 10.105 4.2 8.40195Z" fill="#81868C"/>
</g>
</svg>
